<svg width="18" height="18" viewBox="0 0 18 18" fill="none" xmlns="http://www.w3.org/2000/svg">
<path d="M8.99967 9.83325L8.99967 12.3333L5.66634 8.99992L8.99968 5.66658L8.99967 8.16658L12.333 8.16658L12.333 9.83325L8.99967 9.83325ZM8.99967 17.3333C4.39967 17.3333 0.666341 13.5999 0.666341 8.99992C0.666341 4.39992 4.39968 0.666583 8.99968 0.666584C13.5997 0.666584 17.333 4.39992 17.333 8.99992C17.333 13.5999 13.5997 17.3333 8.99967 17.3333ZM8.99968 2.33325C5.31634 2.33325 2.33301 5.31658 2.33301 8.99992C2.33301 12.6833 5.31634 15.6666 8.99967 15.6666C12.683 15.6666 15.6663 12.6833 15.6663 8.99992C15.6663 5.31658 12.683 2.33325 8.99968 2.33325Z" fill="white"/>
</svg>
