<?xml version="1.0" encoding="utf-8"?>
<!-- Generator: Adobe Illustrator 24.2.3, SVG Export Plug-In . SVG Version: 6.00 Build 0)  -->
<svg version="1.1" id="Capa_1" xmlns="http://www.w3.org/2000/svg" xmlns:xlink="http://www.w3.org/1999/xlink" x="0px" y="0px"
	 viewBox="0 0 120 104.4" style="enable-background:new 0 0 120 104.4;" xml:space="preserve">
<style type="text/css">
	.st0{fill:#42474C;}
	.st1{fill:#363A3F;}
	.st2{fill:#1F2125;}
	.st3{fill:#2B2E33;}
</style>
<polygon class="st0" points="80,70.4 60,58.6 80,47 100,35.2 120,47 100,58.6 "/>
<polygon class="st1" points="59.8,58.5 59.8,104.4 99.5,81.4 99.5,58.9 80,70.4 60,58.6 "/>
<polygon class="st0" points="40.1,70.4 60.1,58.7 40.1,47 20.1,35.2 0.1,47 20.1,58.7 "/>
<polygon class="st2" points="60,11.7 80,23.4 100,35.2 80,47 60,58.6 40,47 20,35.2 40,23.4 "/>
<g>
	<polygon class="st0" points="40,0 60,11.7 40,23.4 20,35.2 0,23.4 20,11.7 	"/>
	<polygon class="st0" points="80,0 60,11.7 80,23.4 100,35.2 120,23.4 100,11.7 	"/>
</g>
<polygon class="st3" points="59.8,58.8 59.8,104.4 20,81.4 20,58.6 40,70.4 "/>
<polygon class="st3" points="40,23.4 20,35.2 40,47 46.4,50.7 60,42.8 60,11.7 "/>
<polygon class="st1" points="60,11.7 60,42.8 73.6,50.7 80,47 100,35.2 80,23.4 "/>
</svg>
