<svg width="16" height="16" viewBox="0 0 18 18" fill="none" xmlns="http://www.w3.org/2000/svg">
<path d="M9.00033 8.1665V5.6665L12.3337 8.99984L9.00033 12.3332V9.83317H5.66699V8.1665H9.00033ZM9.00033 0.666504C13.6003 0.666504 17.3337 4.39984 17.3337 8.99984C17.3337 13.5998 13.6003 17.3332 9.00033 17.3332C4.40033 17.3332 0.666992 13.5998 0.666992 8.99984C0.666992 4.39984 4.40033 0.666504 9.00033 0.666504ZM9.00033 15.6665C12.6837 15.6665 15.667 12.6832 15.667 8.99984C15.667 5.3165 12.6837 2.33317 9.00033 2.33317C5.31699 2.33317 2.33366 5.3165 2.33366 8.99984C2.33366 12.6832 5.31699 15.6665 9.00033 15.6665Z" fill="white"/>
</svg>
