<svg width="20px" height="20px" version="1.1" id="Layer_1" xmlns="http://www.w3.org/2000/svg" xmlns:xlink="http://www.w3.org/1999/xlink" x="0px" y="0px"
	 viewBox="0 0 30 30" style="enable-background:new 0 0 30 30;" xml:space="preserve">

<path class="st0" d="M29.6,27.9l-6.3-6.3c1.9-2.3,3.1-5.2,3.1-8.4C26.4,5.9,20.5,0,13.2,0C5.9,0,0,5.9,0,13.2
	c0,7.3,5.9,13.2,13.2,13.2c3.2,0,6.1-1.1,8.4-3.1l6.3,6.3c0.2,0.2,0.6,0.4,0.9,0.4c0.3,0,0.6-0.1,0.9-0.4
	C30.1,29.2,30.1,28.4,29.6,27.9z M2.4,13.2c0-5.9,4.8-10.8,10.8-10.8S24,7.3,24,13.2S19.2,24,13.2,24S2.4,19.2,2.4,13.2z"/>
</svg>