<svg width="16" height="16" viewBox="0 0 18 18" fill="none" xmlns="http://www.w3.org/2000/svg">
  <path d="M8.99967 9.83349L8.99967 12.3335L5.66634 9.00016L8.99967 5.66683L8.99967 8.16683L12.333 8.16683L12.333 9.8335L8.99967 9.83349ZM8.99967 17.3335C4.39967 17.3335 0.66634 13.6002 0.666341 9.00016C0.666341 4.40016 4.39967 0.666827 8.99968 0.666827C13.5997 0.666828 17.333 4.40016 17.333 9.00016C17.333 13.6002 13.5997 17.3335 8.99967 17.3335ZM8.99968 2.33349C5.31634 2.33349 2.33301 5.31683 2.33301 9.00016C2.33301 12.6835 5.31634 15.6668 8.99967 15.6668C12.683 15.6668 15.6663 12.6835 15.6663 9.00016C15.6663 5.31683 12.683 2.33349 8.99968 2.33349Z" fill="#15171A"/>
</svg>